<svg id="Layer_1" data-name="Layer 1" xmlns="http://www.w3.org/2000/svg" xmlns:xlink="http://www.w3.org/1999/xlink" viewBox="0 0 137 68"><defs><style>.cls-1{fill:none;clip-rule:evenodd;}.cls-2{fill:#fcfbf7;}.cls-3{clip-path:url(#clip-path);}.cls-4,.cls-5{fill:#3a6351;}.cls-5{font-size:46px;font-family:Overlock-BlackItalic, Overlock;font-weight:800;font-style:italic;}</style><clipPath id="clip-path"><path class="cls-1" d="M2,32V63a2.9,2.9,0,0,0,.9,2.1A2.9,2.9,0,0,0,5,66H105a29.5,29.5,0,0,0,5.9-.6,27.8,27.8,0,0,0,5.6-1.7,29.2,29.2,0,0,0,5.2-2.8,30,30,0,0,0,8.2-8.2,29.2,29.2,0,0,0,2.8-5.2,27.8,27.8,0,0,0,1.7-5.6A29.5,29.5,0,0,0,135,36V5a2.9,2.9,0,0,0-.9-2.1A2.9,2.9,0,0,0,132,2H32a29.5,29.5,0,0,0-5.9.6,27.8,27.8,0,0,0-5.6,1.7,29.2,29.2,0,0,0-5.2,2.8,30,30,0,0,0-8.2,8.2,29.2,29.2,0,0,0-2.8,5.2,27.8,27.8,0,0,0-1.7,5.6A29.5,29.5,0,0,0,2,32ZM137.2-.2H-.2V68.2H137.2Z"/></clipPath></defs><path class="cls-2" d="M2,63V32a27.1,27.1,0,0,1,.1-2.9c.1-1,.3-2,.5-3a28.6,28.6,0,0,1,.7-2.8c.3-.9.6-1.9,1-2.8l1.2-2.6a22.6,22.6,0,0,1,1.6-2.6A19.5,19.5,0,0,1,8.8,13a20.9,20.9,0,0,1,2-2.2,20.9,20.9,0,0,1,2.2-2l2.3-1.7a22.6,22.6,0,0,1,2.6-1.6l2.6-1.2,2.8-1,2.8-.7,3-.5H132l1.1.2,1,.7a3.6,3.6,0,0,1,.7,1A3.6,3.6,0,0,1,135,5V36a27.1,27.1,0,0,1-.1,2.9c-.1,1-.3,2-.5,3a28.6,28.6,0,0,1-.7,2.8c-.3.9-.6,1.9-1,2.8l-1.2,2.6a22.6,22.6,0,0,1-1.6,2.6,19.5,19.5,0,0,1-1.7,2.3,20.9,20.9,0,0,1-2,2.2,20.9,20.9,0,0,1-2.2,2l-2.3,1.7a22.6,22.6,0,0,1-2.6,1.6l-2.6,1.2-2.8,1-2.8.7-3,.5H5l-1.1-.2-1-.7a3.6,3.6,0,0,1-.7-1A3.6,3.6,0,0,1,2,63Z"/><g class="cls-3"><path class="cls-4" d="M2.9,67.5A4.7,4.7,0,0,1,0,63V32A30.6,30.6,0,0,1,9.4,9.4,30.6,30.6,0,0,1,32,0h2V4H32a27,27,0,0,0-19.8,8.2A27,27,0,0,0,4,32V63a1,1,0,0,0,.6.9ZM136.3,2.4A4.8,4.8,0,0,1,137,5V36a30.6,30.6,0,0,1-9.4,22.6A30.6,30.6,0,0,1,105,68h-.3V64h.3a27,27,0,0,0,19.8-8.2A27,27,0,0,0,133,36V5a.7.7,0,0,0-.1-.5Z"/></g><text class="cls-5" transform="translate(27 50)">A</text><text class="cls-5" transform="translate(53.8 50)">vlr</text></svg>